{
  "accessors": [
    {
      "bufferView": 2,
      "componentType": 5126,
      "count": 6439,
      "max": [9.549208641052246, 0.9084711074829102, 2.4852981567382813],
      "min": [-0.9084709882736206, -7.198554039001465, -2.4688220024108887],
      "type": "VEC3"
    },
    {
      "bufferView": 2,
      "byteOffset": 77268,
      "componentType": 5126,
      "count": 6439,
      "max": [0.9999086856842041, 1.0, 1.0],
      "min": [-1.0, -0.9999154806137085, -1.0],
      "type": "VEC3"
    },
    {
      "bufferView": 3,
      "componentType": 5126,
      "count": 6439,
      "max": [0.9999276995658875, 0.9999160170555115, 0.9893585443496704, 1.0],
      "min": [-1.0, -1.0, -0.9946737885475159, 1.0],
      "type": "VEC4"
    },
    {
      "bufferView": 1,
      "componentType": 5126,
      "count": 6439,
      "max": [0.9998956322669983, 0.979820728302002],
      "min": [0.00010430763359181583, 0.00010432605631649494],
      "type": "VEC2"
    },
    {
      "bufferView": 0,
      "componentType": 5125,
      "count": 35520,
      "type": "SCALAR"
    },
    {
      "bufferView": 2,
      "byteOffset": 154536,
      "componentType": 5126,
      "count": 11649,
      "max": [0.3660958707332611, 0.4510120749473572, 0.4657111167907715],
      "min": [-0.16189433634281158, -0.46841078996658325, -0.470336377620697],
      "type": "VEC3"
    },
    {
      "bufferView": 2,
      "byteOffset": 294324,
      "componentType": 5126,
      "count": 11649,
      "max": [0.9999454021453857, 0.9997482299804688, 0.9987559914588928],
      "min": [-0.9999923706054688, -0.995547890663147, -0.9999784231185913],
      "type": "VEC3"
    },
    {
      "bufferView": 3,
      "byteOffset": 103024,
      "componentType": 5126,
      "count": 11649,
      "max": [0.9913598299026489, 0.9177219271659851, 0.9387279748916626, -1.0],
      "min": [
        -0.9999805092811584, -0.9998486042022705, -0.9986200928688049, -1.0
      ],
      "type": "VEC4"
    },
    {
      "bufferView": 1,
      "byteOffset": 51512,
      "componentType": 5126,
      "count": 11649,
      "max": [0.9970276355743408, 0.7331339120864868],
      "min": [0.0004215572844259441, 0.0016396127175539732],
      "type": "VEC2"
    },
    {
      "bufferView": 0,
      "byteOffset": 142080,
      "componentType": 5125,
      "count": 67200,
      "type": "SCALAR"
    },
    {
      "bufferView": 2,
      "byteOffset": 434112,
      "componentType": 5126,
      "count": 11649,
      "max": [0.1618959903717041, 0.45101261138916016, 0.46571046113967896],
      "min": [-0.3660942018032074, -0.4684102237224579, -0.47033703327178955],
      "type": "VEC3"
    },
    {
      "bufferView": 2,
      "byteOffset": 573900,
      "componentType": 5126,
      "count": 11649,
      "max": [0.9999923706054688, 0.9997482299804688, 0.9987559914588928],
      "min": [-0.9999454021453857, -0.995547890663147, -0.9999784231185913],
      "type": "VEC3"
    },
    {
      "bufferView": 3,
      "byteOffset": 289408,
      "componentType": 5126,
      "count": 11649,
      "max": [0.9999805688858032, 0.9177217483520508, 0.9387280344963074, 1.0],
      "min": [
        -0.9913598299026489, -0.9998486042022705, -0.9986200928688049, 1.0
      ],
      "type": "VEC4"
    },
    {
      "bufferView": 1,
      "byteOffset": 144704,
      "componentType": 5126,
      "count": 11649,
      "max": [0.9970276355743408, 0.7331339120864868],
      "min": [0.0004215572844259441, 0.0016396127175539732],
      "type": "VEC2"
    },
    {
      "bufferView": 0,
      "byteOffset": 410880,
      "componentType": 5125,
      "count": 67200,
      "type": "SCALAR"
    },
    {
      "bufferView": 2,
      "byteOffset": 713688,
      "componentType": 5126,
      "count": 9143,
      "max": [3.3951361179351807, 0.3476790189743042, 1.2354942560195923],
      "min": [-3.3951332569122314, -7.43633508682251, -3.3371806144714355],
      "type": "VEC3"
    },
    {
      "bufferView": 2,
      "byteOffset": 823404,
      "componentType": 5126,
      "count": 9143,
      "max": [0.9997165203094482, 0.9979047179222107, 0.9999806880950928],
      "min": [-0.9997165203094482, -0.9997931718826294, -0.9996123313903809],
      "type": "VEC3"
    },
    {
      "bufferView": 3,
      "byteOffset": 475792,
      "componentType": 5126,
      "count": 9143,
      "max": [0.9998826384544373, 0.9998581409454346, 0.9934574365615845, 1.0],
      "min": [-1.0, -0.9999380111694336, -0.9973583221435547, -1.0],
      "type": "VEC4"
    },
    {
      "bufferView": 1,
      "byteOffset": 237896,
      "componentType": 5126,
      "count": 9143,
      "max": [0.9735337495803833, 0.9998458623886108],
      "min": [0.0001542454119771719, 0.0001542454119771719],
      "type": "VEC2"
    },
    {
      "bufferView": 0,
      "byteOffset": 679680,
      "componentType": 5125,
      "count": 50532,
      "type": "SCALAR"
    },
    {
      "bufferView": 2,
      "byteOffset": 933120,
      "componentType": 5126,
      "count": 5302,
      "max": [3.4859859943389893, 0.42633581161499023, 0.43042653799057007],
      "min": [-3.48598313331604, -7.550430774688721, -5.430520534515381],
      "type": "VEC3"
    },
    {
      "bufferView": 2,
      "byteOffset": 996744,
      "componentType": 5126,
      "count": 5302,
      "max": [0.9985769391059875, 0.9997152090072632, 0.9999822378158569],
      "min": [-0.9999963045120239, -0.9994714260101318, -0.9999376535415649],
      "type": "VEC3"
    },
    {
      "bufferView": 3,
      "byteOffset": 622080,
      "componentType": 5126,
      "count": 5302,
      "max": [0.9992843866348267, 0.9996617436408997, 0.9961521029472351, 1.0],
      "min": [
        -0.8019735217094421, -0.9998870491981506, -0.996812641620636, 1.0
      ],
      "type": "VEC4"
    },
    {
      "bufferView": 1,
      "byteOffset": 311040,
      "componentType": 5126,
      "count": 5302,
      "max": [0.967100977897644, 0.9777199029922485],
      "min": [0.00011101990094175562, 0.00011101990094175562],
      "type": "VEC2"
    },
    {
      "bufferView": 0,
      "byteOffset": 881808,
      "componentType": 5125,
      "count": 28752,
      "type": "SCALAR"
    },
    {
      "bufferView": 2,
      "byteOffset": 1060368,
      "componentType": 5126,
      "count": 62956,
      "max": [3.3703975677490234, 0.4201758801937103, 0.40018177032470703],
      "min": [-3.3703975677490234, -4.12625789642334, -6.920661926269531],
      "type": "VEC3"
    },
    {
      "bufferView": 2,
      "byteOffset": 1815840,
      "componentType": 5126,
      "count": 62956,
      "max": [0.9995781183242798, 0.9999874830245972, 1.0],
      "min": [-0.9995776414871216, -0.9999547004699707, -0.9999983310699463],
      "type": "VEC3"
    },
    {
      "bufferView": 3,
      "byteOffset": 706912,
      "componentType": 5126,
      "count": 62956,
      "max": [1.0, 0.9999123215675354, 0.9982912540435791, 1.0],
      "min": [-1.0, -0.9992127418518066, -0.9991465210914612, -1.0],
      "type": "VEC4"
    },
    {
      "bufferView": 1,
      "byteOffset": 353456,
      "componentType": 5126,
      "count": 62956,
      "max": [0.7994116544723511, 0.9998708963394165],
      "min": [0.00012910588702652603, 0.00016212846094276756],
      "type": "VEC2"
    },
    {
      "bufferView": 0,
      "byteOffset": 996816,
      "componentType": 5125,
      "count": 369408,
      "type": "SCALAR"
    },
    {
      "bufferView": 2,
      "byteOffset": 2571312,
      "componentType": 5126,
      "count": 6188,
      "max": [1.6314079761505127, 2.256291627883911, 3.151482582092285],
      "min": [-1.6314079761505127, -1.4754810333251953, -1.7814619541168213],
      "type": "VEC3"
    },
    {
      "bufferView": 2,
      "byteOffset": 2645568,
      "componentType": 5126,
      "count": 6188,
      "max": [0.9986528158187866, 0.9999998807907104, 0.999201774597168],
      "min": [-0.9986528158187866, -0.9999994039535522, -0.9999979734420776],
      "type": "VEC3"
    },
    {
      "bufferView": 3,
      "byteOffset": 1714208,
      "componentType": 5126,
      "count": 6188,
      "max": [0.9991653561592102, 0.9983317255973816, 0.9884815216064453, 1.0],
      "min": [
        -0.999826192855835, -0.998331606388092, -0.9881343841552734, -1.0
      ],
      "type": "VEC4"
    },
    {
      "bufferView": 1,
      "byteOffset": 857104,
      "componentType": 5126,
      "count": 6188,
      "max": [0.7377521395683289, 0.9998140931129456],
      "min": [0.00018592221022117883, 0.00018592221022117883],
      "type": "VEC2"
    },
    {
      "bufferView": 0,
      "byteOffset": 2474448,
      "componentType": 5125,
      "count": 34428,
      "type": "SCALAR"
    }
  ],
  "asset": {
    "extras": {
      "author": "Killy (https://sketchfab.com/lanternlit)",
      "license": "CC-BY-4.0 (http://creativecommons.org/licenses/by/4.0/)",
      "source": "https://sketchfab.com/3d-models/close-helmet-83c36d2cebd94939adbb0982fe547f5f",
      "title": "Close Helmet"
    },
    "generator": "Sketchfab-12.66.0",
    "version": "2.0"
  },
  "bufferViews": [
    {
      "buffer": 0,
      "byteLength": 2612160,
      "name": "floatBufferViews",
      "target": 34963
    },
    {
      "buffer": 0,
      "byteLength": 906608,
      "byteOffset": 2612160,
      "byteStride": 8,
      "name": "floatBufferViews",
      "target": 34962
    },
    {
      "buffer": 0,
      "byteLength": 2719824,
      "byteOffset": 3518768,
      "byteStride": 12,
      "name": "floatBufferViews",
      "target": 34962
    },
    {
      "buffer": 0,
      "byteLength": 1813216,
      "byteOffset": 6238592,
      "byteStride": 16,
      "name": "floatBufferViews",
      "target": 34962
    }
  ],
  "buffers": [
    {
      "byteLength": 8051808,
      "uri": "scene.bin"
    }
  ],
  "images": [
    {
      "uri": "Clasp_baseColor.png"
    },
    {
      "uri": "Clasp_metallicRoughness.png"
    },
    {
      "uri": "Clasp_normal.png"
    },
    {
      "uri": "Hinge_baseColor.png"
    },
    {
      "uri": "Hinge_metallicRoughness.png"
    },
    {
      "uri": "Hinge_normal.png"
    },
    {
      "uri": "UpperVisor_baseColor.png"
    },
    {
      "uri": "UpperVisor_metallicRoughness.png"
    },
    {
      "uri": "UpperVisor_normal.png"
    },
    {
      "uri": "LowerVisor_baseColor.png"
    },
    {
      "uri": "LowerVisor_metallicRoughness.png"
    },
    {
      "uri": "LowerVisor_normal.png"
    },
    {
      "uri": "Bevor_baseColor.png"
    },
    {
      "uri": "Bevor_metallicRoughness.png"
    },
    {
      "uri": "Bevor_normal.png"
    },
    {
      "uri": "Helm.001_baseColor.png"
    },
    {
      "uri": "Helm.001_metallicRoughness.png"
    },
    {
      "uri": "Helm.001_normal.png"
    }
  ],
  "materials": [
    {
      "doubleSided": true,
      "name": "Clasp",
      "normalTexture": {
        "index": 2
      },
      "pbrMetallicRoughness": {
        "baseColorTexture": {
          "index": 0
        },
        "metallicRoughnessTexture": {
          "index": 1
        }
      }
    },
    {
      "doubleSided": true,
      "name": "Hinge",
      "normalTexture": {
        "index": 5
      },
      "pbrMetallicRoughness": {
        "baseColorTexture": {
          "index": 3
        },
        "metallicRoughnessTexture": {
          "index": 4
        }
      }
    },
    {
      "doubleSided": true,
      "name": "UpperVisor",
      "normalTexture": {
        "index": 8
      },
      "pbrMetallicRoughness": {
        "baseColorTexture": {
          "index": 6
        },
        "metallicRoughnessTexture": {
          "index": 7
        }
      }
    },
    {
      "doubleSided": true,
      "name": "LowerVisor",
      "normalTexture": {
        "index": 11
      },
      "pbrMetallicRoughness": {
        "baseColorTexture": {
          "index": 9
        },
        "metallicRoughnessTexture": {
          "index": 10
        }
      }
    },
    {
      "doubleSided": true,
      "name": "Bevor",
      "normalTexture": {
        "index": 14
      },
      "pbrMetallicRoughness": {
        "baseColorTexture": {
          "index": 12
        },
        "metallicRoughnessTexture": {
          "index": 13
        }
      }
    },
    {
      "doubleSided": true,
      "name": "Helm.001",
      "normalTexture": {
        "index": 17
      },
      "pbrMetallicRoughness": {
        "baseColorTexture": {
          "index": 15
        },
        "metallicRoughnessTexture": {
          "index": 16
        }
      }
    }
  ],
  "meshes": [
    {
      "name": "clasp_Clasp_0",
      "primitives": [
        {
          "attributes": {
            "NORMAL": 1,
            "POSITION": 0,
            "TANGENT": 2,
            "TEXCOORD_0": 3
          },
          "indices": 4,
          "material": 0,
          "mode": 4
        }
      ]
    },
    {
      "name": "hinger_Hinge_0",
      "primitives": [
        {
          "attributes": {
            "NORMAL": 6,
            "POSITION": 5,
            "TANGENT": 7,
            "TEXCOORD_0": 8
          },
          "indices": 9,
          "material": 1,
          "mode": 4
        }
      ]
    },
    {
      "name": "hingel_Hinge_0",
      "primitives": [
        {
          "attributes": {
            "NORMAL": 11,
            "POSITION": 10,
            "TANGENT": 12,
            "TEXCOORD_0": 13
          },
          "indices": 14,
          "material": 1,
          "mode": 4
        }
      ]
    },
    {
      "name": "uppervisor_UpperVisor_0",
      "primitives": [
        {
          "attributes": {
            "NORMAL": 16,
            "POSITION": 15,
            "TANGENT": 17,
            "TEXCOORD_0": 18
          },
          "indices": 19,
          "material": 2,
          "mode": 4
        }
      ]
    },
    {
      "name": "lowervisor_LowerVisor_0",
      "primitives": [
        {
          "attributes": {
            "NORMAL": 21,
            "POSITION": 20,
            "TANGENT": 22,
            "TEXCOORD_0": 23
          },
          "indices": 24,
          "material": 3,
          "mode": 4
        }
      ]
    },
    {
      "name": "bevor_Bevor_0",
      "primitives": [
        {
          "attributes": {
            "NORMAL": 26,
            "POSITION": 25,
            "TANGENT": 27,
            "TEXCOORD_0": 28
          },
          "indices": 29,
          "material": 4,
          "mode": 4
        }
      ]
    },
    {
      "name": "helm_Helm.001_0",
      "primitives": [
        {
          "attributes": {
            "NORMAL": 31,
            "POSITION": 30,
            "TANGENT": 32,
            "TEXCOORD_0": 33
          },
          "indices": 34,
          "material": 5,
          "mode": 4
        }
      ]
    }
  ],
  "nodes": [
    {
      "children": [1],
      "matrix": [
        0.23618166148662567, 0.0, 0.0, 0.0, 0.0, 5.244286371533528e-17,
        -0.23618166148662567, 0.0, 0.0, 0.23618166148662567,
        5.244286371533528e-17, 0.0, 0.0, 0.0, 0.0, 1.0
      ],
      "name": "Sketchfab_model"
    },
    {
      "children": [2],
      "matrix": [
        1.0, 0.0, 0.0, 0.0, 0.0, 0.0, 1.0, 0.0, 0.0, -1.0, 0.0, 0.0, 0.0, 0.0,
        0.0, 1.0
      ],
      "name": "e19747bdb9e54044b908eca15ba4b7fd.fbx"
    },
    {
      "children": [3, 5, 7, 9, 11, 13, 15],
      "name": "RootNode"
    },
    {
      "children": [4],
      "matrix": [
        6.537089024467691, -10.17160261503004, -12.707397217335231, 0.0,
        0.42040200204233147, -13.58384351174592, 11.089419893745909, 0.0,
        -16.27153053153249, -4.43740374697058, -4.818684349365352, 0.0,
        -304.84210205078125, -50.07900619506836, -120.75782012939453, 1.0
      ],
      "name": "clasp"
    },
    {
      "mesh": 0,
      "name": "clasp_Clasp_0"
    },
    {
      "children": [6],
      "matrix": [
        100.0, 0.0, 0.0, 0.0, -0.0, -1.629206793918314e-5, -99.99999999999868,
        0.0, 0.0, 99.99999999999868, -1.629206793918314e-5, 0.0,
        -329.7317810058594, 179.1046142578125, -170.08447265625, 1.0
      ],
      "name": "hinger"
    },
    {
      "mesh": 1,
      "name": "hinger_Hinge_0"
    },
    {
      "children": [8],
      "matrix": [
        100.0, 0.0, 0.0, 0.0, 0.0, -1.629206793918314e-5, -99.99999999999868,
        0.0, 0.0, 99.99999999999868, -1.629206793918314e-5, 0.0,
        329.73150634765625, 179.10467529296875, -170.08441162109375, 1.0
      ],
      "name": "hingel"
    },
    {
      "mesh": 2,
      "name": "hingel_Hinge_0"
    },
    {
      "children": [10],
      "matrix": [
        100.0, 0.0, 0.0, 0.0, -0.0, -1.629206793918314e-5, -99.99999999999868,
        0.0, 0.0, 99.99999999999868, -1.629206793918314e-5, 0.0,
        -0.00013113021850585938, 179.10464477539063, -170.08445739746094, 1.0
      ],
      "name": "uppervisor"
    },
    {
      "mesh": 3,
      "name": "uppervisor_UpperVisor_0"
    },
    {
      "children": [12],
      "matrix": [
        100.0, 0.0, 0.0, 0.0, -0.0, -1.629206793918314e-5, -99.99999999999868,
        0.0, 0.0, 99.99999999999868, -1.629206793918314e-5, 0.0,
        -0.00013113021850585938, 179.10464477539063, -170.08445739746094, 1.0
      ],
      "name": "lowervisor"
    },
    {
      "mesh": 4,
      "name": "lowervisor_LowerVisor_0"
    },
    {
      "children": [14],
      "matrix": [
        100.0, 0.0, 0.0, 0.0, -0.0, -1.629206793918314e-5, -99.99999999999868,
        0.0, 0.0, 99.99999999999868, -1.629206793918314e-5, 0.0,
        -0.00013113021850585938, 179.10464477539063, -170.08445739746094, 1.0
      ],
      "name": "bevor"
    },
    {
      "mesh": 5,
      "name": "bevor_Bevor_0"
    },
    {
      "children": [16],
      "matrix": [
        200.22056579589844, 0.0, 0.0, 0.0, 0.0, -3.262007060768465e-5,
        -200.2205657958958, 0.0, 0.0, 200.2205657958958, -3.262007060768465e-5,
        0.0, 0.0, 1.1920928955078125e-5, 0.0, 1.0
      ],
      "name": "helm"
    },
    {
      "mesh": 6,
      "name": "helm_Helm.001_0"
    }
  ],
  "samplers": [
    {
      "magFilter": 9729,
      "minFilter": 9987,
      "wrapS": 10497,
      "wrapT": 10497
    }
  ],
  "scene": 0,
  "scenes": [
    {
      "name": "Sketchfab_Scene",
      "nodes": [0]
    }
  ],
  "textures": [
    {
      "sampler": 0,
      "source": 0
    },
    {
      "sampler": 0,
      "source": 1
    },
    {
      "sampler": 0,
      "source": 2
    },
    {
      "sampler": 0,
      "source": 3
    },
    {
      "sampler": 0,
      "source": 4
    },
    {
      "sampler": 0,
      "source": 5
    },
    {
      "sampler": 0,
      "source": 6
    },
    {
      "sampler": 0,
      "source": 7
    },
    {
      "sampler": 0,
      "source": 8
    },
    {
      "sampler": 0,
      "source": 9
    },
    {
      "sampler": 0,
      "source": 10
    },
    {
      "sampler": 0,
      "source": 11
    },
    {
      "sampler": 0,
      "source": 12
    },
    {
      "sampler": 0,
      "source": 13
    },
    {
      "sampler": 0,
      "source": 14
    },
    {
      "sampler": 0,
      "source": 15
    },
    {
      "sampler": 0,
      "source": 16
    },
    {
      "sampler": 0,
      "source": 17
    }
  ]
}
